<svg xmlns="http://www.w3.org/2000/svg" viewBox="0 0 239 154"><defs><style>.cls-1{font-size:16px;fill:#fff;font-family:PPWoodland-Ultralight, PP Woodland;font-weight:100;}.cls-2{letter-spacing:-0.06em;}.cls-3{letter-spacing:-0.08em;}.cls-4{letter-spacing:-0.03em;}.cls-5{letter-spacing:-0.02em;}.cls-6{letter-spacing:-0.04em;}.cls-7{letter-spacing:-0.04em;}.cls-8{letter-spacing:-0.07em;}.cls-9{letter-spacing:-0.03em;}.cls-10{letter-spacing:-0.01em;}.cls-11{letter-spacing:-0.02em;}.cls-12{letter-spacing:-0.01em;}.cls-13{letter-spacing:-0.05em;}.cls-14{letter-spacing:0em;}.cls-15{letter-spacing:-0.1em;}.cls-16{letter-spacing:0em;}.cls-17{letter-spacing:-0.15em;}</style></defs><title>Asset10</title><g id="Layer_2" data-name="Layer 2"><g id="Layer_1-2" data-name="Layer 1"><rect width="239" height="154"/><text class="cls-1" transform="translate(34.12 29.25)">I s<tspan class="cls-2" x="14.56" y="0">a</tspan><tspan x="21.81" y="0">w </tspan><tspan class="cls-3" x="38.25" y="0">y</tspan><tspan class="cls-4" x="46.27" y="0">o</tspan><tspan x="54.43" y="0">u </tspan><tspan class="cls-5" x="67.49" y="0">a</tspan><tspan class="cls-6" x="75.38" y="0">n</tspan><tspan x="83.95" y="0">d </tspan><tspan class="cls-7" x="97.15" y="0">e</tspan><tspan class="cls-8" x="104.59" y="0">v</tspan><tspan class="cls-9" x="113.07" y="0">e</tspan><tspan class="cls-10" x="120.67" y="0">ry</tspan><tspan class="cls-9" x="137.1" y="0">t</tspan><tspan class="cls-11" x="141.5" y="0">hi</tspan><tspan class="cls-4" x="153.6" y="0">n</tspan><tspan x="162.33" y="0">g </tspan><tspan class="cls-9" x="0.01" y="21">s</tspan><tspan class="cls-11" x="6.73" y="21">ta</tspan><tspan class="cls-12" x="19.18" y="21">r</tspan><tspan class="cls-13" x="26.47" y="21">t</tspan><tspan class="cls-10" x="30.55" y="21">e</tspan><tspan x="38.47" y="21">d </tspan><tspan class="cls-11" x="51.67" y="21">shaki</tspan><tspan class="cls-9" x="86.79" y="21">ng</tspan><tspan class="cls-14" x="103.48" y="21">. </tspan><tspan class="cls-15" x="109.88" y="21">A</tspan><tspan x="120.47" y="21">t </tspan><tspan class="cls-5" x="129.19" y="21">fi</tspan><tspan x="137.5" y="21">r</tspan><tspan class="cls-9" x="144.95" y="21">s</tspan><tspan x="151.67" y="21">t, </tspan><tspan class="cls-6" x="163" y="21">i</tspan><tspan class="cls-14" x="165.88" y="21">t </tspan><tspan class="cls-3" x="14.87" y="42">w</tspan><tspan class="cls-16" x="26.2" y="42">as </tspan><tspan class="cls-10" x="45.45" y="42">s</tspan><tspan class="cls-4" x="52.49" y="42">o</tspan><tspan class="cls-7" x="60.65" y="42">m</tspan><tspan class="cls-11" x="73.64" y="42">e</tspan><tspan class="cls-9" x="81.4" y="42">t</tspan><tspan class="cls-5" x="85.8" y="42">hi</tspan><tspan class="cls-9" x="97.89" y="42">n</tspan><tspan x="106.63" y="42">g </tspan><tspan class="cls-11" x="118.9" y="42">g</tspan><tspan class="cls-10" x="127.01" y="42">oo</tspan><tspan x="143.97" y="42">d. </tspan><tspan class="cls-17" x="-15.86" y="63">Y</tspan><tspan class="cls-9" x="-8.28" y="63">o</tspan><tspan class="cls-10" x="-0.12" y="63">u</tspan><tspan x="8.94" y="63">r </tspan><tspan class="cls-9" x="20.23" y="63">p</tspan><tspan class="cls-11" x="29.27" y="63">r</tspan><tspan x="36.41" y="63">e</tspan><tspan class="cls-12" x="44.49" y="63">s</tspan><tspan class="cls-4" x="51.53" y="63">e</tspan><tspan class="cls-7" x="59.13" y="63">n</tspan><tspan class="cls-10" x="67.71" y="63">ce</tspan><tspan x="83.83" y="63">, </tspan><tspan class="cls-7" x="90.28" y="63">e</tspan><tspan class="cls-8" x="97.72" y="63">v</tspan><tspan class="cls-9" x="106.2" y="63">e</tspan><tspan x="113.8" y="63">n </tspan><tspan class="cls-4" x="126.86" y="63">i</tspan><tspan x="129.9" y="63">f </tspan><tspan class="cls-12" x="139.16" y="63">di</tspan><tspan class="cls-4" x="151.72" y="63">s</tspan><tspan class="cls-5" x="158.44" y="63">ta</tspan><tspan class="cls-2" x="170.89" y="63">n</tspan><tspan x="179.14" y="63">t, </tspan><tspan class="cls-5" x="-11.41" y="84">f</tspan><tspan class="cls-4" x="-6.3" y="84">i</tspan><tspan class="cls-5" x="-3.26" y="84">ll</tspan><tspan class="cls-10" x="2.82" y="84">e</tspan><tspan x="10.74" y="84">d a </tspan><tspan class="cls-7" x="35.98" y="84">h</tspan><tspan class="cls-4" x="44.56" y="84">o</tspan><tspan class="cls-5" x="52.72" y="84">l</tspan><tspan x="55.76" y="84">e </tspan><tspan class="cls-11" x="67.68" y="84">i</tspan><tspan class="cls-14" x="70.88" y="84">n </tspan><tspan class="cls-6" x="83.94" y="84">m</tspan><tspan x="96.93" y="84">e </tspan><tspan class="cls-9" x="108.85" y="84">t</tspan><tspan class="cls-11" x="113.25" y="84">h</tspan><tspan class="cls-13" x="122.14" y="84">a</tspan><tspan x="129.55" y="84">t I </tspan><tspan class="cls-12" x="145.63" y="84">d</tspan><tspan class="cls-4" x="154.83" y="84">id</tspan><tspan class="cls-13" x="166.75" y="84">n</tspan><tspan class="cls-9" x="175.16" y="84">’</tspan><tspan x="177.29" y="84">t </tspan><tspan class="cls-7" x="21.52" y="105">e</tspan><tspan class="cls-8" x="28.96" y="105">v</tspan><tspan class="cls-4" x="37.44" y="105">e</tspan><tspan class="cls-14" x="45.04" y="105">n </tspan><tspan class="cls-11" x="58.1" y="105">k</tspan><tspan class="cls-7" x="66.35" y="105">n</tspan><tspan class="cls-8" x="74.93" y="105">o</tspan><tspan x="82.45" y="105">w </tspan><tspan class="cls-13" x="98.9" y="105">e</tspan><tspan class="cls-10" x="106.18" y="105">xi</tspan><tspan class="cls-9" x="118.61" y="105">s</tspan><tspan class="cls-13" x="125.33" y="105">t</tspan><tspan class="cls-10" x="129.41" y="105">e</tspan><tspan x="137.33" y="105">d.</tspan></text></g></g></svg>