<svg xmlns="http://www.w3.org/2000/svg" viewBox="0 0 243 164"><defs><style>.cls-1{font-size:16px;fill:#fff;font-family:PPWoodland-Ultralight, PP Woodland;font-weight:100;}.cls-2{letter-spacing:-0.04em;}.cls-3{letter-spacing:-0.07em;}.cls-4{letter-spacing:-0.1em;}.cls-5{letter-spacing:-0.03em;}.cls-6{letter-spacing:-0.01em;}.cls-7{letter-spacing:-0.02em;}.cls-8{letter-spacing:-0.04em;}.cls-9{letter-spacing:-0.01em;}.cls-10{letter-spacing:-0.02em;}.cls-11{letter-spacing:-0.03em;}.cls-12{letter-spacing:-0.08em;}.cls-13{letter-spacing:0em;}.cls-14{letter-spacing:-0.06em;}.cls-15{letter-spacing:-0.05em;}.cls-16{letter-spacing:0em;}</style></defs><title>Asset13</title><g id="Layer_2" data-name="Layer 2"><g id="Layer_1-2" data-name="Layer 1"><rect width="243" height="164"/><text class="cls-1" transform="translate(20.65 29.88)"><tspan class="cls-2">N</tspan><tspan class="cls-3" x="10.38" y="0">o</tspan><tspan class="cls-4" x="17.9" y="0">w</tspan><tspan x="28.91" y="0">, </tspan><tspan class="cls-5" x="35.36" y="0">t</tspan><tspan class="cls-2" x="39.76" y="0">h</tspan><tspan x="48.33" y="0">e </tspan><tspan class="cls-6" x="60.25" y="0">d</tspan><tspan class="cls-7" x="69.45" y="0">ark</tspan><tspan class="cls-8" x="92.74" y="0">n</tspan><tspan x="101.31" y="0">ess </tspan><tspan class="cls-9" x="127.63" y="0">i</tspan><tspan x="130.99" y="0">s </tspan><tspan class="cls-10" x="142.03" y="0">f</tspan><tspan class="cls-11" x="147.13" y="0">i</tspan><tspan class="cls-10" x="150.17" y="0">l</tspan><tspan class="cls-9" x="153.21" y="0">l</tspan><tspan class="cls-10" x="156.41" y="0">i</tspan><tspan class="cls-11" x="159.61" y="0">n</tspan><tspan x="168.35" y="0">g </tspan><tspan class="cls-3" x="180.62" y="0">m</tspan><tspan x="193.13" y="0">y </tspan><tspan class="cls-6" x="-0.68" y="19.2">bod</tspan><tspan x="26.04" y="19.2">y </tspan><tspan class="cls-10" x="39.18" y="19.2">a</tspan><tspan class="cls-2" x="47.06" y="19.2">n</tspan><tspan x="55.64" y="19.2">d </tspan><tspan class="cls-10" x="68.84" y="19.2">i</tspan><tspan class="cls-11" x="72.04" y="19.2">n</tspan><tspan class="cls-12" x="80.78" y="19.2">f</tspan><tspan class="cls-6" x="84.92" y="19.2">e</tspan><tspan class="cls-5" x="92.84" y="19.2">c</tspan><tspan class="cls-7" x="100.73" y="19.2">ti</tspan><tspan class="cls-11" x="108.49" y="19.2">n</tspan><tspan x="117.22" y="19.2">g </tspan><tspan class="cls-2" x="129.5" y="19.2">e</tspan><tspan class="cls-3" x="136.94" y="19.2">v</tspan><tspan class="cls-5" x="145.42" y="19.2">e</tspan><tspan class="cls-6" x="153.01" y="19.2">ry</tspan><tspan class="cls-5" x="169.45" y="19.2">t</tspan><tspan class="cls-7" x="173.85" y="19.2">hi</tspan><tspan class="cls-11" x="185.94" y="19.2">n</tspan><tspan x="194.68" y="19.2">g</tspan><tspan x="0.74" y="38.4"> </tspan><tspan class="cls-10" x="4.58" y="38.4">i</tspan><tspan class="cls-13" x="7.78" y="38.4">n </tspan><tspan class="cls-8" x="20.83" y="38.4">m</tspan><tspan x="33.82" y="38.4">e. </tspan><tspan class="cls-11" x="48.3" y="38.4">I</tspan><tspan x="51.34" y="38.4">t</tspan><tspan class="cls-14" x="56.22" y="38.4">’</tspan><tspan x="57.87" y="38.4">s </tspan><tspan class="cls-10" x="68.91" y="38.4">har</tspan><tspan x="92.83" y="38.4">d </tspan><tspan class="cls-15" x="106.03" y="38.4">t</tspan><tspan x="110.11" y="38.4">o </tspan><tspan class="cls-6" x="122.59" y="38.4">se</tspan><tspan x="137.55" y="38.4">e </tspan><tspan class="cls-5" x="149.47" y="38.4">t</tspan><tspan class="cls-2" x="153.87" y="38.4">h</tspan><tspan x="162.45" y="38.4">e </tspan><tspan class="cls-6" x="174.37" y="38.4">l</tspan><tspan class="cls-11" x="177.57" y="38.4">ig</tspan><tspan class="cls-14" x="188.56" y="38.4">h</tspan><tspan x="196.81" y="38.4">t </tspan><tspan class="cls-2" x="10.1" y="57.6">o</tspan><tspan x="18.1" y="57.6">f </tspan><tspan class="cls-5" x="27.37" y="57.6">t</tspan><tspan class="cls-2" x="31.77" y="57.6">h</tspan><tspan x="40.34" y="57.6">e </tspan><tspan class="cls-6" x="52.26" y="57.6">d</tspan><tspan class="cls-3" x="61.46" y="57.6">a</tspan><tspan class="cls-13" x="68.55" y="57.6">y </tspan><tspan class="cls-5" x="81.69" y="57.6">w</tspan><tspan class="cls-2" x="93.81" y="57.6">h</tspan><tspan class="cls-5" x="102.39" y="57.6">e</tspan><tspan x="109.99" y="57.6">n </tspan><tspan class="cls-11" x="123.05" y="57.6">t</tspan><tspan class="cls-8" x="127.45" y="57.6">h</tspan><tspan x="136.02" y="57.6">e </tspan><tspan class="cls-11" x="147.94" y="57.6">c</tspan><tspan class="cls-7" x="155.83" y="57.6">l</tspan><tspan class="cls-5" x="158.87" y="57.6">o</tspan><tspan class="cls-10" x="167.03" y="57.6">u</tspan><tspan class="cls-9" x="175.93" y="57.6">d</tspan><tspan x="185.13" y="57.6">s</tspan><tspan x="11.36" y="76.8"> </tspan><tspan class="cls-10" x="15.2" y="76.8">ar</tspan><tspan x="30.22" y="76.8">e </tspan><tspan class="cls-15" x="42.14" y="76.8">t</tspan><tspan class="cls-6" x="46.22" y="76.8">o</tspan><tspan x="54.7" y="76.8">o </tspan><tspan class="cls-2" x="67.18" y="76.8">h</tspan><tspan class="cls-6" x="75.76" y="76.8">e</tspan><tspan class="cls-12" x="83.68" y="76.8">a</tspan><tspan x="90.61" y="76.8">v</tspan><tspan class="cls-4" x="100.21" y="76.8">y</tspan><tspan class="cls-16" x="107.9" y="76.8">. I </tspan><tspan class="cls-7" x="121.66" y="76.8">l</tspan><tspan class="cls-6" x="124.7" y="76.8">o</tspan><tspan class="cls-11" x="133.18" y="76.8">o</tspan><tspan x="141.34" y="76.8">k </tspan><tspan class="cls-10" x="153.76" y="76.8">i</tspan><tspan x="156.96" y="76.8">n </tspan><tspan class="cls-11" x="170.01" y="76.8">t</tspan><tspan class="cls-8" x="174.41" y="76.8">h</tspan><tspan x="182.99" y="76.8">e </tspan><tspan class="cls-10" x="19.06" y="96">mirr</tspan><tspan class="cls-11" x="49.85" y="96">o</tspan><tspan class="cls-16" x="58.01" y="96">r </tspan><tspan class="cls-7" x="69.3" y="96">a</tspan><tspan class="cls-2" x="77.19" y="96">n</tspan><tspan x="85.77" y="96">d </tspan><tspan class="cls-10" x="98.97" y="96">d</tspan><tspan class="cls-11" x="108.01" y="96">o</tspan><tspan class="cls-15" x="116.17" y="96">n</tspan><tspan class="cls-5" x="124.58" y="96">’</tspan><tspan x="126.71" y="96">t </tspan><tspan class="cls-6" x="135.43" y="96">se</tspan><tspan x="150.39" y="96">e </tspan><tspan class="cls-5" x="162.31" y="96">t</tspan><tspan class="cls-2" x="166.71" y="96">h</tspan><tspan x="175.29" y="96">e </tspan><tspan class="cls-7" x="24.02" y="115.2">refl</tspan><tspan class="cls-6" x="47.06" y="115.2">e</tspan><tspan class="cls-11" x="54.98" y="115.2">c</tspan><tspan class="cls-10" x="62.87" y="115.2">t</tspan><tspan class="cls-11" x="67.42" y="115.2">io</tspan><tspan x="78.62" y="115.2">n I </tspan><tspan class="cls-9" x="99.04" y="115.2">use</tspan><tspan x="123.06" y="115.2">d </tspan><tspan class="cls-15" x="136.25" y="115.2">t</tspan><tspan x="140.33" y="115.2">o </tspan><tspan class="cls-6" x="152.81" y="115.2">se</tspan><tspan x="167.78" y="115.2">e.</tspan></text></g></g></svg>