<svg xmlns="http://www.w3.org/2000/svg" viewBox="0 0 257 139"><defs><style>.cls-1{font-size:15px;fill:#fff;font-family:PPWoodland-Ultralight, PP Woodland;font-weight:100;}.cls-2{letter-spacing:-0.02em;}.cls-3{letter-spacing:-0.05em;}.cls-4{letter-spacing:-0.03em;}.cls-5{letter-spacing:-0.03em;}.cls-6{letter-spacing:-0.01em;}.cls-7{letter-spacing:-0.07em;}.cls-8{letter-spacing:-0.04em;}.cls-9{letter-spacing:-0.06em;}.cls-10{letter-spacing:-0.01em;}.cls-11{letter-spacing:-0.08em;}.cls-12{letter-spacing:-0.08em;}.cls-13{letter-spacing:-0.04em;}.cls-14{letter-spacing:-0.05em;}.cls-15{letter-spacing:-0.02em;}</style></defs><title>Asset15</title><g id="Layer_2" data-name="Layer 2"><g id="Layer_1-2" data-name="Layer 1"><rect width="257" height="139"/><text class="cls-1" transform="translate(34.66 29.16)">I <tspan class="cls-2" x="6.9" y="0">ca</tspan><tspan class="cls-3" x="21.84" y="0">n</tspan><tspan class="cls-4" x="29.73" y="0">’</tspan><tspan x="31.72" y="0">t </tspan><tspan class="cls-2" x="39.9" y="0">d</tspan><tspan x="48.37" y="0">o </tspan><tspan class="cls-5" x="60.07" y="0">t</tspan><tspan class="cls-2" x="64.2" y="0">h</tspan><tspan class="cls-6" x="72.54" y="0">i</tspan><tspan x="75.69" y="0">s </tspan><tspan class="cls-2" x="86.04" y="0">a</tspan><tspan class="cls-7" x="93.43" y="0">n</tspan><tspan class="cls-2" x="101.02" y="0">y</tspan><tspan class="cls-8" x="109.44" y="0">m</tspan><tspan class="cls-4" x="121.62" y="0">o</tspan><tspan class="cls-2" x="129.27" y="0">r</tspan><tspan x="135.96" y="0">e. I </tspan><tspan class="cls-9" x="156.43" y="0">m</tspan><tspan class="cls-10" x="168.31" y="0">u</tspan><tspan class="cls-4" x="176.8" y="0">s</tspan><tspan x="183.1" y="0">t </tspan><tspan x="-9.52" y="18">e</tspan><tspan class="cls-6" x="-1.95" y="18">s</tspan><tspan class="cls-2" x="4.65" y="18">ca</tspan><tspan class="cls-10" x="19.59" y="18">p</tspan><tspan x="28.37" y="18">e </tspan><tspan class="cls-4" x="39.54" y="18">t</tspan><tspan class="cls-8" x="43.67" y="18">h</tspan><tspan x="51.71" y="18">e </tspan><tspan class="cls-8" x="62.88" y="18">h</tspan><tspan class="cls-4" x="70.92" y="18">o</tspan><tspan class="cls-2" x="78.57" y="18">l</tspan><tspan x="81.42" y="18">d </tspan><tspan class="cls-11" x="93.79" y="18">y</tspan><tspan class="cls-4" x="101.31" y="18">o</tspan><tspan x="108.96" y="18">u </tspan><tspan class="cls-2" x="121.2" y="18">h</tspan><tspan class="cls-12" x="129.54" y="18">a</tspan><tspan class="cls-7" x="136.03" y="18">v</tspan><tspan x="143.98" y="18">e </tspan><tspan class="cls-4" x="155.16" y="18">o</tspan><tspan x="162.81" y="18">n </tspan><tspan class="cls-8" x="175.04" y="18">m</tspan><tspan x="187.23" y="18">e. </tspan><tspan x="-13.95" y="36">I </tspan><tspan class="cls-8" x="-7.05" y="36">n</tspan><tspan class="cls-6" x="0.99" y="36">ee</tspan><tspan x="15.84" y="36">d </tspan><tspan class="cls-3" x="28.21" y="36">t</tspan><tspan x="32.04" y="36">o </tspan><tspan class="cls-4" x="43.74" y="36">e</tspan><tspan class="cls-8" x="50.86" y="36">r</tspan><tspan x="57.25" y="36">a</tspan><tspan class="cls-6" x="64.95" y="36">s</tspan><tspan x="71.55" y="36">e </tspan><tspan class="cls-2" x="82.72" y="36">al</tspan><tspan x="92.97" y="36">l </tspan><tspan class="cls-4" x="99.72" y="36">t</tspan><tspan class="cls-8" x="103.84" y="36">h</tspan><tspan x="111.88" y="36">e</tspan><tspan class="cls-10" x="119.46" y="36">s</tspan><tspan x="126.06" y="36">e </tspan><tspan class="cls-13" x="137.23" y="36">fr</tspan><tspan class="cls-2" x="148.11" y="36">a</tspan><tspan x="155.5" y="36">g</tspan><tspan class="cls-8" x="163.41" y="36">m</tspan><tspan class="cls-4" x="175.59" y="36">e</tspan><tspan class="cls-9" x="182.71" y="36">n</tspan><tspan class="cls-10" x="190.45" y="36">t</tspan><tspan x="194.88" y="36">s </tspan><tspan class="cls-2" x="-15.67" y="54">a</tspan><tspan class="cls-8" x="-8.27" y="54">n</tspan><tspan x="-0.23" y="54">d </tspan><tspan class="cls-2" x="12.14" y="54">shar</tspan><tspan class="cls-6" x="41.02" y="54">d</tspan><tspan x="49.64" y="54">s </tspan><tspan class="cls-4" x="59.99" y="54">t</tspan><tspan class="cls-2" x="64.12" y="54">h</tspan><tspan class="cls-3" x="72.46" y="54">a</tspan><tspan x="79.4" y="54">t </tspan><tspan class="cls-14" x="87.57" y="54">t</tspan><tspan class="cls-6" x="91.4" y="54">o</tspan><tspan class="cls-4" x="99.35" y="54">o</tspan><tspan x="107" y="54">k </tspan><tspan class="cls-8" x="118.64" y="54">h</tspan><tspan class="cls-4" x="126.68" y="54">o</tspan><tspan class="cls-2" x="134.33" y="54">l</tspan><tspan x="137.18" y="54">d </tspan><tspan class="cls-8" x="149.55" y="54">o</tspan><tspan x="157.05" y="54">f </tspan><tspan class="cls-8" x="165.74" y="54">e</tspan><tspan class="cls-7" x="172.71" y="54">v</tspan><tspan class="cls-4" x="180.66" y="54">e</tspan><tspan class="cls-6" x="187.79" y="54">r</tspan><tspan x="194.63" y="54">y </tspan><tspan class="cls-8" x="-15.28" y="72">n</tspan><tspan class="cls-6" x="-7.24" y="72">o</tspan><tspan class="cls-4" x="0.71" y="72">o</tspan><tspan x="8.35" y="72">k </tspan><tspan class="cls-2" x="19.99" y="72">a</tspan><tspan class="cls-8" x="27.39" y="72">n</tspan><tspan x="35.43" y="72">d </tspan><tspan class="cls-4" x="47.8" y="72">c</tspan><tspan class="cls-8" x="55.2" y="72">r</tspan><tspan class="cls-2" x="61.59" y="72">a</tspan><tspan class="cls-4" x="68.98" y="72">n</tspan><tspan class="cls-7" x="77.17" y="72">n</tspan><tspan x="84.76" y="72">y </tspan><tspan class="cls-8" x="97.08" y="72">o</tspan><tspan x="104.58" y="72">f </tspan><tspan class="cls-7" x="113.26" y="72">m</tspan><tspan x="124.99" y="72">y </tspan><tspan class="cls-2" x="137.31" y="72">mi</tspan><tspan class="cls-13" x="152.79" y="72">n</tspan><tspan x="160.83" y="72">d </tspan><tspan class="cls-5" x="173.2" y="72">i</tspan><tspan x="176.05" y="72">f I</tspan><tspan class="cls-2" x="188.03" y="72">’</tspan><tspan x="190.18" y="72">m </tspan><tspan class="cls-8" x="19.44" y="90">e</tspan><tspan class="cls-7" x="26.42" y="90">v</tspan><tspan class="cls-4" x="34.37" y="90">e</tspan><tspan x="41.49" y="90">r </tspan><tspan class="cls-3" x="52.08" y="90">t</tspan><tspan x="55.91" y="90">o </tspan><tspan class="cls-10" x="67.61" y="90">b</tspan><tspan x="76.08" y="90">e </tspan><tspan class="cls-15" x="87.26" y="90">ha</tspan><tspan class="cls-5" x="102.99" y="90">p</tspan><tspan class="cls-9" x="111.46" y="90">p</tspan><tspan x="119.49" y="90">y </tspan><tspan class="cls-2" x="131.8" y="90">a</tspan><tspan class="cls-4" x="139.2" y="90">g</tspan><tspan class="cls-10" x="146.65" y="90">a</tspan><tspan class="cls-2" x="154.2" y="90">i</tspan><tspan x="157.2" y="90">n.</tspan></text></g></g></svg>