<svg xmlns="http://www.w3.org/2000/svg" viewBox="0 0 631.48 35.5"><defs><style>.cls-1{font-size:31.42px;fill:#fff;font-family:PPWoodland-Ultralight, PP Woodland;}.cls-2{letter-spacing:-0.03em;}.cls-3{letter-spacing:-0.15em;}.cls-4{letter-spacing:0em;}.cls-5{letter-spacing:-0.01em;}.cls-6{letter-spacing:-0.05em;}.cls-7{letter-spacing:-0.03em;}.cls-8{letter-spacing:-0.02em;}.cls-9{letter-spacing:-0.07em;}.cls-10{letter-spacing:-0.05em;}</style></defs><title>5Asset 8</title><g id="Layer_2" data-name="Layer 2"><g id="quadrados"><text class="cls-1" transform="translate(0 26.08)">I <tspan class="cls-2" x="14.45" y="0">A</tspan><tspan x="37.45" y="0">M </tspan><tspan class="cls-3" x="73.02" y="0">A</tspan><tspan class="cls-4" x="92.25" y="0">T </tspan><tspan class="cls-5" x="118.45" y="0">L</tspan><tspan class="cls-6" x="134.35" y="0">A</tspan><tspan class="cls-7" x="156.72" y="0">S</tspan><tspan class="cls-4" x="173.09" y="0">T </tspan><tspan class="cls-2" x="199.3" y="0">O</tspan><tspan x="219.41" y="0">N </tspan><tspan class="cls-8" x="248.59" y="0">T</tspan><tspan class="cls-2" x="266.63" y="0">H</tspan><tspan class="cls-4" x="287.05" y="0">E </tspan><tspan class="cls-2" x="311.12" y="0">V</tspan><tspan class="cls-8" x="333.49" y="0">E</tspan><tspan class="cls-9" x="349.39" y="0">R</tspan><tspan class="cls-7" x="366.1" y="0">G</tspan><tspan class="cls-4" x="386.46" y="0">E </tspan><tspan class="cls-2" x="410.53" y="0">O</tspan><tspan x="430.64" y="0">F </tspan><tspan class="cls-2" x="454.71" y="0">G</tspan><tspan class="cls-5" x="475.07" y="0">R</tspan><tspan class="cls-10" x="493.67" y="0">A</tspan><tspan x="516.04" y="0">S</tspan><tspan class="cls-8" x="533.35" y="0">P</tspan><tspan class="cls-2" x="551.01" y="0">IN</tspan><tspan x="577.68" y="0">G </tspan><tspan class="cls-8" x="606.53" y="0">I</tspan><tspan x="612.81" y="0">T</tspan></text></g></g></svg>