<svg xmlns="http://www.w3.org/2000/svg" viewBox="0 0 1125 309"><defs><style>.cls-1{font-size:56px;fill:#fff;font-family:PPWoodland-Ultralight, PP Woodland;font-weight:100;}.cls-2{letter-spacing:-0.04em;}.cls-3{letter-spacing:-0.03em;}.cls-4{letter-spacing:-0.02em;}.cls-5{letter-spacing:-0.17em;}.cls-6{letter-spacing:-0.03em;}.cls-7{letter-spacing:-0.01em;}.cls-8{letter-spacing:-0.02em;}.cls-9{letter-spacing:-0.01em;}.cls-10{letter-spacing:-0.05em;}.cls-11{letter-spacing:0em;}.cls-12{letter-spacing:0em;}.cls-13{letter-spacing:-0.03em;}.cls-14{letter-spacing:-0.02em;}.cls-15{letter-spacing:-0.07em;}.cls-16{letter-spacing:-0.1em;}.cls-17{letter-spacing:-0.04em;}.cls-18{letter-spacing:0em;}</style></defs><title>Asset 3</title><g id="Layer_2" data-name="Layer 2"><g id="Layer_1-2" data-name="Layer 1"><rect width="1125" height="309"/><text class="cls-1" transform="translate(165.3 107.26)"><tspan class="cls-2">T</tspan><tspan x="31.02" y="0">O </tspan><tspan class="cls-3" x="81.98" y="0">D</tspan><tspan class="cls-4" x="115.69" y="0">E</tspan><tspan class="cls-5" x="144.03" y="0">L</tspan><tspan class="cls-6" x="163.41" y="0">V</tspan><tspan x="203.28" y="0">E </tspan><tspan class="cls-3" x="246.17" y="0">I</tspan><tspan class="cls-4" x="256.81" y="0">N</tspan><tspan class="cls-2" x="294.28" y="0">T</tspan><tspan x="325.3" y="0">O </tspan><tspan class="cls-4" x="376.26" y="0">T</tspan><tspan class="cls-3" x="408.4" y="0">H</tspan><tspan x="444.8" y="0">E </tspan><tspan class="cls-7" x="487.7" y="0">E</tspan><tspan x="516.59" y="0">X</tspan><tspan class="cls-8" x="554.39" y="0">PER</tspan><tspan class="cls-3" x="646.79" y="0">I</tspan><tspan class="cls-8" x="657.43" y="0">E</tspan><tspan class="cls-3" x="685.77" y="0">N</tspan><tspan class="cls-9" x="722.67" y="0">C</tspan><tspan x="755.82" y="0">E, </tspan><tspan class="cls-8" x="0.81" y="67.2">PLE</tspan><tspan class="cls-10" x="88.39" y="67.2">A</tspan><tspan x="128.27" y="67.2">SE </tspan><tspan class="cls-6" x="202.02" y="67.2">V</tspan><tspan class="cls-8" x="241.89" y="67.2">I</tspan><tspan class="cls-11" x="253.09" y="67.2">S</tspan><tspan class="cls-8" x="283.94" y="67.2">I</tspan><tspan x="295.14" y="67.2">T </tspan><tspan class="cls-6" x="341.85" y="67.2">U</tspan><tspan class="cls-12" x="377.69" y="67.2">S </tspan><tspan class="cls-13" x="421.98" y="67.2">U</tspan><tspan x="457.82" y="67.2">S</tspan><tspan class="cls-3" x="488.68" y="67.2">IN</tspan><tspan x="536.22" y="67.2">G </tspan><tspan class="cls-7" x="587.63" y="67.2">G</tspan><tspan x="625.04" y="67.2">OO</tspan><tspan class="cls-3" x="700.08" y="67.2">G</tspan><tspan class="cls-14" x="736.36" y="67.2">L</tspan><tspan x="764.14" y="67.2">E </tspan><tspan class="cls-7" x="-93.69" y="134.4">C</tspan><tspan class="cls-6" x="-60.54" y="134.4">H</tspan><tspan class="cls-15" x="-24.14" y="134.4">R</tspan><tspan class="cls-3" x="5.65" y="134.4">OM</tspan><tspan x="89.77" y="134.4">E </tspan><tspan class="cls-3" x="132.66" y="134.4">O</tspan><tspan class="cls-11" x="168.5" y="134.4">N </tspan><tspan class="cls-16" x="220.52" y="134.4">Y</tspan><tspan class="cls-6" x="249.87" y="134.4">OU</tspan><tspan x="321.55" y="134.4">R </tspan><tspan class="cls-3" x="368.7" y="134.4">D</tspan><tspan class="cls-7" x="402.41" y="134.4">E</tspan><tspan x="431.31" y="134.4">S</tspan><tspan class="cls-17" x="462.16" y="134.4">KT</tspan><tspan class="cls-3" x="524.66" y="134.4">O</tspan><tspan class="cls-18" x="560.5" y="134.4">P C</tspan><tspan class="cls-13" x="640.24" y="134.4">OM</tspan><tspan x="724.35" y="134.4">P</tspan><tspan class="cls-7" x="756.94" y="134.4">U</tspan><tspan class="cls-8" x="793.9" y="134.4">TE</tspan><tspan x="854.38" y="134.4">R</tspan></text></g></g></svg>